<svg height="782" width="720" xmlns="http://www.w3.org/2000/svg">
<rect height="782" fill="#555" width="720"></rect>
<text fill="#7f7" font-family="Courier New" font-size="12" xml:space="preserve">
<tspan x="10" y="26">18 megabytes installed</tspan>
<tspan x="10" y="42"></tspan>
<tspan x="10" y="58">node_modules</tspan>
<tspan x="10" y="74">├── UNMET PEER DEPENDENCY moment@(2.10 - 2.14 || ^2.15.1) &amp;&amp; &lt; 2.18.0</tspan>
<tspan x="10" y="90">├── UNMET PEER DEPENDENCY react@&gt;=0.14</tspan>
<tspan x="10" y="106">├── UNMET PEER DEPENDENCY react-addons-shallow-compare@&gt;=0.14</tspan>
<tspan x="10" y="122">├─┬ react-dates@10.1.1 </tspan>
<tspan x="10" y="138">│ ├─┬ airbnb-prop-types@2.5.3 </tspan>
<tspan x="10" y="154">│ │ ├── array.prototype.find@2.0.4 </tspan>
<tspan x="10" y="170">│ │ ├─┬ has@1.0.1 </tspan>
<tspan x="10" y="186">│ │ │ └── function-bind@1.1.0 </tspan>
<tspan x="10" y="202">│ │ ├── is-regex@1.0.4 </tspan>
<tspan x="10" y="218">│ │ ├─┬ object.assign@4.0.4 </tspan>
<tspan x="10" y="234">│ │ │ └── object-keys@1.0.11 </tspan>
<tspan x="10" y="250">│ │ └── object.entries@1.0.4 </tspan>
<tspan x="10" y="266">│ ├─┬ array-includes@3.0.3 </tspan>
<tspan x="10" y="282">│ │ ├─┬ define-properties@1.1.2 </tspan>
<tspan x="10" y="298">│ │ │ └── foreach@2.0.5 </tspan>
<tspan x="10" y="314">│ │ └─┬ es-abstract@1.7.0 </tspan>
<tspan x="10" y="330">│ │   ├─┬ es-to-primitive@1.1.1 </tspan>
<tspan x="10" y="346">│ │   │ ├── is-date-object@1.0.1 </tspan>
<tspan x="10" y="362">│ │   │ └── is-symbol@1.0.1 </tspan>
<tspan x="10" y="378">│ │   └── is-callable@1.1.3 </tspan>
<tspan x="10" y="394">│ ├── classnames@2.2.5 </tspan>
<tspan x="10" y="410">│ ├── consolidated-events@1.0.1 </tspan>
<tspan x="10" y="426">│ ├── lodash.throttle@4.1.1 </tspan>
<tspan x="10" y="442">│ ├─┬ prop-types@15.5.8 </tspan>
<tspan x="10" y="458">│ │ └─┬ fbjs@0.8.12 </tspan>
<tspan x="10" y="474">│ │   ├── core-js@1.2.7 </tspan>
<tspan x="10" y="490">│ │   ├─┬ isomorphic-fetch@2.2.1 </tspan>
<tspan x="10" y="506">│ │   │ ├─┬ node-fetch@1.6.3 </tspan>
<tspan x="10" y="522">│ │   │ │ ├─┬ encoding@0.1.12 </tspan>
<tspan x="10" y="538">│ │   │ │ │ └── iconv-lite@0.4.16 </tspan>
<tspan x="10" y="554">│ │   │ │ └── is-stream@1.1.0 </tspan>
<tspan x="10" y="570">│ │   │ └── whatwg-fetch@2.0.3 </tspan>
<tspan x="10" y="586">│ │   ├─┬ loose-envify@1.3.1 </tspan>
<tspan x="10" y="602">│ │   │ └── js-tokens@3.0.1 </tspan>
<tspan x="10" y="618">│ │   ├── object-assign@4.1.1 </tspan>
<tspan x="10" y="634">│ │   ├─┬ promise@7.1.1 </tspan>
<tspan x="10" y="650">│ │   │ └── asap@2.0.5 </tspan>
<tspan x="10" y="666">│ │   ├── setimmediate@1.0.5 </tspan>
<tspan x="10" y="682">│ │   └── ua-parser-js@0.7.12 </tspan>
<tspan x="10" y="698">│ ├── UNMET PEER DEPENDENCY react@^0.14 || ^15.0.0</tspan>
<tspan x="10" y="714">│ ├─┬ react-moment-proptypes@1.4.0 </tspan>
<tspan x="10" y="730">│ │ └── moment@2.18.1 </tspan>
<tspan x="10" y="746">│ └── react-portal@3.1.0 </tspan>
<tspan x="10" y="762">└── UNMET PEER DEPENDENCY react-dom@&gt;=0.14</tspan>
</text>
</svg>
